<?xml version="1.0" encoding="UTF-8" standalone="no"?>
<svg width="301px" height="239px" viewBox="0 0 301 239" version="1.1" xmlns="http://www.w3.org/2000/svg" xmlns:xlink="http://www.w3.org/1999/xlink">
    <!-- Generator: Sketch 3.8.3 (29802) - http://www.bohemiancoding.com/sketch -->
    <title>JSS logo</title>
    <desc>Created with Sketch.</desc>
    <defs></defs>
    <g id="Page-1" stroke="none" stroke-width="1" fill="none" fill-rule="evenodd">
        <g id="JSS-logo">
            <g id="Unofficial_JavaScript_logo_2-Copy" transform="translate(1.000000, 1.000000)">
                <g id="Group">
                    <rect id="Rectangle-path" stroke="#000000" stroke-width="2" fill="#F7DF1E" x="0" y="0" width="237" height="237"></rect>
                    <path d="M159.20381,185.15719 C163.977667,192.951857 170.188571,198.681238 181.173333,198.681238 C190.401286,198.681238 196.29619,194.069143 196.29619,187.696476 C196.29619,180.05981 190.239524,177.355 180.082381,172.91219 L174.514762,170.523381 C158.443905,163.676714 147.767619,155.099571 147.767619,136.96719 C147.767619,120.264333 160.494143,107.549095 180.383333,107.549095 C194.543143,107.549095 204.722857,112.47719 212.058571,125.380524 L194.71619,136.515762 C190.897857,129.669095 186.778571,126.97181 180.383333,126.97181 C173.86019,126.97181 169.725857,131.109905 169.725857,136.515762 C169.725857,143.196905 173.863952,145.901714 183.41919,150.03981 L188.98681,152.424857 C207.90919,160.539286 218.593,168.811714 218.593,187.410571 C218.593,207.461524 202.841905,218.446286 181.688714,218.446286 C161.005762,218.446286 147.643476,208.590095 141.105286,195.671714 L159.20381,185.15719 Z M239.542793,185.15719 C244.31665,192.951857 250.527554,198.681238 261.512316,198.681238 C270.740269,198.681238 276.635174,194.069143 276.635174,187.696476 C276.635174,180.05981 270.578507,177.355 260.421364,172.91219 L254.853745,170.523381 C238.782888,163.676714 228.106602,155.099571 228.106602,136.96719 C228.106602,120.264333 240.833126,107.549095 260.722316,107.549095 C274.882126,107.549095 285.06184,112.47719 292.397554,125.380524 L275.055174,136.515762 C271.23684,129.669095 267.117554,126.97181 260.722316,126.97181 C254.199174,126.97181 250.06484,131.109905 250.06484,136.515762 C250.06484,143.196905 254.202935,145.901714 263.758174,150.03981 L269.325793,152.424857 C288.248174,160.539286 298.931983,168.811714 298.931983,187.410571 C298.931983,207.461524 283.180888,218.446286 262.027697,218.446286 C241.344745,218.446286 227.982459,208.590095 221.444269,195.671714 L239.542793,185.15719 Z M80.5310952,187.087048 C84.0296667,193.29419 87.2122381,198.542048 94.8639524,198.542048 C102.180857,198.542048 106.796714,195.679238 106.796714,184.547762 L106.796714,108.820619 L129.06719,108.820619 L129.06719,184.848714 C129.06719,207.90919 115.546905,218.404905 95.8119524,218.404905 C77.9805238,218.404905 67.6540952,209.176952 62.4024762,198.062405 L80.5310952,187.087048 Z" id="Shape" fill="#000000"></path>
                </g>
            </g>
        </g>
    </g>
</svg>